<svg xmlns="http://www.w3.org/2000/svg" version="1.1" xmlns:xlink="http://www.w3.org/1999/xlink" xmlns:svgjs="http://svgjs.dev/svgjs" width="1500" height="935" viewBox="0 0 1500 935"><g transform="matrix(1,0,0,1,-0.9090909090909918,0.3785425101214628)"><svg viewBox="0 0 396 247" data-background-color="#ffffff" preserveAspectRatio="xMidYMid meet" height="935" width="1500" xmlns="http://www.w3.org/2000/svg" xmlns:xlink="http://www.w3.org/1999/xlink"><g id="tight-bounds" transform="matrix(1,0,0,1,0.2400000000000091,-0.09999999999999432)"><svg viewBox="0 0 395.52 247.2" height="247.2" width="395.52"><g><svg></svg></g><g><svg viewBox="0 0 395.52 247.2" height="247.2" width="395.52"><g transform="matrix(1,0,0,1,133.4907568773234,47.215199999999996)"><svg viewBox="0 0 128.53848624535317 152.7696" height="152.7696" width="128.53848624535317"><g><svg viewBox="0 0 128.53848624535317 152.7696" height="152.7696" width="128.53848624535317"><g><svg viewBox="0 0 128.53848624535317 152.7696" height="152.7696" width="128.53848624535317"><g><svg viewBox="0 0 128.53848624535317 152.7696" height="152.7696" width="128.53848624535317"><g id="textblocktransform"><svg viewBox="0 0 128.53848624535317 152.7696" height="152.7696" width="128.53848624535317" id="textblock"><g><svg viewBox="0 0 128.53848624535317 152.7696" height="152.7696" width="128.53848624535317"><g transform="matrix(1,0,0,1,0,0)"><svg width="128.53848624535317" viewBox="2.5 -39.8 33.95 40.35" height="152.7696" data-palette-color="#ca3433"><path d="M28.2-21.15Q32.05-20.05 34.25-17.45 36.45-14.85 36.45-11.45L36.45-11.45Q36.45-8.3 33.93-5.53 31.4-2.75 27.63-1.1 23.85 0.55 20.45 0.55L20.45 0.55Q17.95 0.55 15.55 0.3L15.55 0.3Q11.55 0.05 9.35 0.05L9.35 0.05 3 0.05 3-1.5 7.7-5.2 7.7-35.6 2.5-37.3 3.5-39.3 9.3-39.3Q13.85-39.3 18.25-39.6L18.25-39.6Q21.65-39.8 23.25-39.8L23.25-39.8Q26.6-39.8 29.15-38.5 31.7-37.2 33.08-34.98 34.45-32.75 34.45-30L34.45-30Q34.45-27.5 32.73-25.23 31-22.95 28.2-21.25L28.2-21.25 28.2-21.15ZM27.7-27.5Q27.7-31.45 25.6-33.95 23.5-36.45 19.35-36.45L19.35-36.45Q16.35-36.45 13.95-34.75L13.95-34.75 13.95-21.5 21.1-21.5Q24.2-21.5 25.95-23.08 27.7-24.65 27.7-27.55L27.7-27.55 27.7-27.5ZM21.85-3.1Q25.45-3.1 27.58-4.9 29.7-6.7 29.7-9.75L29.7-9.75Q29.7-13.65 27.43-16.05 25.15-18.45 20.65-18.6L20.65-18.6Q20.3-18.55 19.7-18.55L19.7-18.55 13.95-18.55 13.95-4.4Q17.3-3.05 21.85-3.05L21.85-3.05 21.85-3.1Z" opacity="1" transform="matrix(1,0,0,1,0,0)" fill="#ca3433" class="wordmark-text-0" data-fill-palette-color="primary" id="text-0"></path></svg></g></svg></g></svg></g></svg></g></svg></g></svg></g></svg></g><g><path d="M0 123.6c0-68.262 55.338-123.6 123.6-123.6 30.402 0 58.24 10.976 79.768 29.183l-11.147 0c-19.26-14.022-42.974-22.294-68.621-22.295-64.458 0-116.712 52.254-116.712 116.712 0 64.458 52.254 116.712 116.712 116.712 25.647 0 49.361-8.272 68.621-22.295l11.147 0c-21.528 18.206-49.366 29.183-79.768 29.183-68.262 0-123.6-55.338-123.6-123.6z" fill="#ca3433" stroke="transparent" data-fill-palette-color="tertiary"></path></g></svg></g><defs></defs></svg><rect width="395.52" height="247.2" fill="none" stroke="none" visibility="hidden"></rect></g></svg></g></svg>