<svg xmlns="http://www.w3.org/2000/svg" version="1.1" xmlns:xlink="http://www.w3.org/1999/xlink" xmlns:svgjs="http://svgjs.dev/svgjs" width="1500" height="935" viewBox="0 0 1500 935"><g transform="matrix(1,0,0,1,-0.9090909090909918,162.10399973138738)"><svg viewBox="0 0 396 247" data-background-color="#ffffff" preserveAspectRatio="xMidYMid meet" height="935" width="1500" xmlns="http://www.w3.org/2000/svg" xmlns:xlink="http://www.w3.org/1999/xlink"><g id="tight-bounds" transform="matrix(1,0,0,1,0.2400000000000091,-0.09999999999999432)"><svg viewBox="0 0 395.52 247.2" height="247.2" width="395.52"><g><svg></svg></g><g><svg viewBox="0 0 395.52 247.2" height="247.2" width="395.52"><g transform="matrix(1,0,0,1,75.54432,83.18373873417721)"><svg viewBox="0 0 244.43135999999998 80.83252253164557" height="80.83252253164557" width="244.43135999999998"><g><svg viewBox="0 0 244.43135999999998 80.83252253164557" height="80.83252253164557" width="244.43135999999998"><g><svg viewBox="0 0 244.43135999999998 80.83252253164557" height="80.83252253164557" width="244.43135999999998"><g><svg viewBox="0 0 244.43135999999998 80.83252253164557" height="80.83252253164557" width="244.43135999999998"><g id="textblocktransform"><svg viewBox="0 0 244.43135999999998 80.83252253164557" height="80.83252253164557" width="244.43135999999998" id="textblock"><g><svg viewBox="0 0 244.43135999999998 80.83252253164557" height="80.83252253164557" width="244.43135999999998"><g transform="matrix(1,0,0,1,0,0)"><svg width="244.43135999999998" viewBox="0.63 -40.16 123.43 40.81999999999999" height="80.83252253164557" data-palette-color="#61777f"><path d="M12.23-0.98L12.23-0.98Q12.38-0.98 12.38-0.78L12.38-0.78 12.38-0.2Q12.38 0 12.23 0L12.23 0 0.83 0Q0.63 0 0.63-0.2L0.63-0.2 0.63-0.78Q0.63-0.98 0.83-0.98L0.83-0.98Q4.83-0.98 5.18-4.42L5.18-4.42Q5.27-5.42 5.38-7.75 5.49-10.08 6.03-17.79 6.57-25.49 6.57-30.25L6.57-30.25 6.57-31.15Q6.57-32.13 5.46-32.79 4.35-33.45 3.83-33.45 3.32-33.45 3.32-33.64L3.32-33.64 3.32-34.23Q3.32-34.42 3.52-34.42L3.52-34.42 10.57-34.42Q11.04-34.35 11.33-33.89L11.33-33.89 22.78-8.37Q22.9-8.2 22.97-8.08 23.05-7.96 23.34-7.97 23.63-7.98 23.78-8.4L23.78-8.4 35.11-33.45Q35.62-34.42 36.04-34.42L36.04-34.42 43.14-34.42Q43.33-34.42 43.33-34.23L43.33-34.23 43.33-33.64Q43.33-33.45 43.21-33.45L43.21-33.45Q42.48-33.45 41.41-32.96L41.41-32.96Q39.77-32.23 39.77-30.79L39.77-30.79 41.24-3.81Q41.28-2.54 42.55-1.76 43.82-0.98 45.87-0.98L45.87-0.98Q46.07-0.98 46.07-0.78L46.07-0.78 46.07-0.2Q46.07 0 45.87 0L45.87 0 32.01 0Q31.81 0 31.81-0.2L31.81-0.2 31.81-0.78Q31.81-0.98 32.01-0.98L32.01-0.98Q36.38-0.98 36.38-3.1L36.38-3.1 35.08-26.42Q35.06-26.66 34.95-26.66 34.84-26.66 34.77-26.44L34.77-26.44 22.63-0.17Q22.53 0 22.07 0 21.61 0 21.53-0.2L21.53-0.2 9.57-26.51Q9.42-26.86 9.29-26.86 9.16-26.86 9.16-26.32L9.16-26.32Q9.16-25.2 8.57-15.72 7.98-6.25 7.98-3.91L7.98-3.91 7.98-2.91Q8.28-1.51 10.74-1.1L10.74-1.1Q11.45-0.98 12.23-0.98ZM63.89-4.03Q63.89-3.39 64.49-3.02 65.09-2.64 65.87-2.64 66.65-2.64 67.17-3.04 67.7-3.44 67.89-3.44 68.09-3.44 68.09-2.92 68.09-2.39 67.6-2.03L67.6-2.03Q63.94 0.66 62.64 0.66L62.64 0.66Q61.08 0.66 60.1-2.59L60.1-2.59Q60.03-2.83 59.98-2.81L59.98-2.81Q56.96-0.54 56.17-0.07L56.17-0.07Q54.17 1.07 52.16 0.29 50.14-0.49 49.24-2.29L49.24-2.29Q48.8-3.22 48.8-4.27L48.8-4.27Q48.8-6.35 50.34-7.57 51.88-8.79 56.2-9.91L56.2-9.91Q57.66-10.3 58.81-10.91 59.96-11.52 60.02-11.69 60.08-11.87 60.08-12.01L60.08-12.01 60.08-16.7Q60.08-19.46 57.93-20.58L57.93-20.58Q57.22-20.95 56.24-20.95 55.25-20.95 54.23-20.17 53.22-19.38 53.22-17.94L53.22-17.94 53.34-16.99Q53.2-16.7 51.58-16.02 49.97-15.33 49.73-15.28L49.73-15.28Q49.34-15.28 49.34-16.22 49.34-17.16 49.9-18.31 50.46-19.46 51.49-20.41L51.49-20.41Q53.88-22.63 56.96-22.63 60.03-22.63 61.96-20.94 63.89-19.24 63.89-16.89L63.89-16.89 63.89-4.03ZM52.63-4.74Q52.63-3.56 53.54-2.7 54.44-1.83 55.6-1.83 56.76-1.83 58.42-2.82 60.08-3.81 60.08-4.86L60.08-4.86 60.08-9.81Q60.08-10.08 59.96-10.08 59.84-10.08 59.79-10.06L59.79-10.06 54.12-7.42Q53.24-6.79 52.94-6.35 52.63-5.91 52.63-4.74ZM77.02-39.58L77.02-18.9Q77.02-18.31 77.19-18.31 77.36-18.31 77.44-18.4 77.51-18.48 78.46-19.53L78.46-19.53Q81.22-22.61 84.05-22.61L84.05-22.61Q87.76-22.61 89.5-20.95L89.5-20.95Q91.62-18.85 91.62-13.89L91.62-13.89 91.62-3.71Q91.62-1.32 94.26-0.93L94.26-0.93Q95.41-0.78 95.41-0.42 95.41-0.05 95.16 0L95.16 0 84.27 0Q84.03-0.05 84.03-0.34L84.03-0.34Q84.03-0.78 85.18-0.93L85.18-0.93Q87.81-1.32 87.81-3.71L87.81-3.71 87.81-13.65Q87.81-17.24 87.3-18.31L87.3-18.31Q86.32-20.46 83.22-20.46L83.22-20.46Q81.32-20.46 79.17-18.84 77.02-17.21 77.02-15.26L77.02-15.26 77.02-3.71Q77.02-1.32 79.66-0.93L79.66-0.93Q80.81-0.78 80.81-0.42 80.81-0.05 80.56 0L80.56 0 69.67 0Q69.43-0.05 69.43-0.34L69.43-0.34Q69.43-0.78 70.58-0.93L70.58-0.93Q73.21-1.32 73.21-3.71L73.21-3.71 73.21-34.16Q73.21-35.18 72.09-35.57L72.09-35.57Q71.6-35.74 71.04-35.85 70.48-35.96 70.15-36.06 69.82-36.16 69.73-36.24 69.65-36.33 69.65-36.61 69.65-36.89 70.01-37.08L70.01-37.08 76.24-40.01Q76.53-40.16 76.61-40.16L76.61-40.16Q77.02-40.16 77.02-39.58L77.02-39.58ZM115.76-7.69L115.76-7.69 115.72-12.84Q115.72-15.99 115.18-17.26 114.64-18.53 113.81-19.18 112.98-19.82 111.58-19.82 110.17-19.82 105.63-17.63L105.63-17.63Q105.02-17.26 105-16.94L105-16.94 105-3.81Q105-1.34 107.63-0.98L107.63-0.98Q108.78-0.81 108.78-0.43 108.78-0.05 108.54 0L108.54 0 97.65 0Q97.4-0.05 97.4-0.34L97.4-0.34Q97.4-0.81 98.55-0.98L98.55-0.98Q101.19-1.34 101.19-3.81L101.19-3.81 101.19-17.82Q101.19-18.85 100.07-19.24L100.07-19.24Q99.58-19.41 99.02-19.52 98.45-19.63 98.12-19.73 97.8-19.82 97.71-19.91 97.62-20 97.62-20.28 97.62-20.56 97.99-20.75L97.99-20.75 104.22-23.68Q104.51-23.83 104.58-23.83L104.58-23.83Q105-23.83 105-23.24L105-23.24 105-19.43Q105.07-19.19 105.19-19.19L105.19-19.19Q105.34-19.19 106.24-19.63L106.24-19.63Q108.34-20.68 110.47-21.66 112.59-22.63 113.98-22.63L113.98-22.63Q119.62-22.63 119.62-12.35L119.62-12.35 119.4-5.22 119.4-3.81Q119.4-1.9 121.31-1.32L121.31-1.32Q122.11-1.05 122.86-0.94 123.6-0.83 123.83-0.73 124.06-0.63 124.06-0.34 124.06-0.05 123.82 0L123.82 0 112.05 0Q111.81-0.05 111.81-0.34L111.81-0.34Q111.81-0.81 112.96-0.98L112.96-0.98Q115.57-1.34 115.57-4L115.57-4Q115.76-5.22 115.76-7.69Z" opacity="1" transform="matrix(1,0,0,1,0,0)" fill="#61777f" class="wordmark-text-0" data-fill-palette-color="primary" id="text-0"></path></svg></g></svg></g></svg></g></svg></g><g></g></svg></g></svg></g></svg></g><g><path d="M91.005 64.101A122.216 122.216 0 0 1 304.515 64.101L297.225 64.101A114.926 114.926 0 0 0 98.295 64.101L91.005 64.101M91.005 183.099A122.216 122.216 0 0 0 304.515 183.099L297.225 183.099A114.926 114.926 0 0 1 98.295 183.099L91.005 183.099" fill="#61777f" stroke="transparent" data-fill-palette-color="tertiary"></path></g></svg></g><defs></defs></svg><rect width="395.52" height="247.2" fill="none" stroke="none" visibility="hidden"></rect></g></svg></g></svg>